# xmcd
#
# Track frame offsets: 
#        150
#        13567
#        26527
#        35115
#        47080
#        60560
#        69875
#        86427
#        99280
#        119982
#
# Disc length: 1773 seconds
#
# Revision: 0
# Processed by: cddbd v1.4PL0 Copyright (c) Steve Scherf et al.
# Submitted via: ExactAudioCopy v0.90b4
#
DISCID=7d06eb0a
DTITLE=Special Delivery - This is Special Delivery
DYEAR=1993
DGENRE=Bluegrass
TTITLE0=He Loved Her More Than Life
TTITLE1=Love Broke
TTITLE2=Alberta Clipper
TTITLE3=Let's Part the Best of Friends
TTITLE4=Just When I Needed You Most
TTITLE5=Sweet Sally Brown
TTITLE6=The Road to Denton
TTITLE7=60 Years
TTITLE8=He is My Guide
TTITLE9=Raining in L.A.
EXTD=
EXTT0=
EXTT1=
EXTT2=
EXTT3=
EXTT4=
EXTT5=
EXTT6=
EXTT7=
EXTT8=
EXTT9=
PLAYORDER=
